<?xml version="1.0" standalone="no"?>
<!DOCTYPE svg PUBLIC "-//W3C//DTD SVG 20010904//EN"
 "http://www.w3.org/TR/2001/REC-SVG-20010904/DTD/svg10.dtd">
<svg version="1.0" xmlns="http://www.w3.org/2000/svg"
 width="260.000000pt" height="260.000000pt" viewBox="0 0 260.000000 260.000000"
 preserveAspectRatio="xMidYMid meet">
<metadata>
Created by potrace 1.11, written by Peter Selinger 2001-2013
</metadata>
<g transform="translate(0.000000,260.000000) scale(0.100000,-0.100000)"
fill="#000000" stroke="none">
<path d="M760 2193 c-32 -11 -40 -37 -40 -128 0 -106 10 -128 60 -128 20 0 38
7 46 18 18 25 19 195 2 217 -15 19 -47 28 -68 21z m35 -129 c0 -72 -3 -89 -15
-89 -12 0 -16 17 -18 79 -3 87 1 110 21 103 8 -2 12 -30 12 -93z"/>
<path d="M521 2173 c0 -10 8 -65 18 -123 l17 -105 31 -3 31 -3 18 123 c16 104
17 124 5 126 -21 6 -29 -15 -37 -95 -3 -40 -10 -75 -14 -78 -4 -3 -11 23 -14
58 -12 102 -17 117 -37 117 -12 0 -19 -7 -18 -17z"/>
<path d="M905 2178 c2 -7 11 -64 21 -126 l17 -113 31 3 31 3 17 105 c22 137
22 140 -1 140 -16 0 -20 -10 -25 -62 -15 -136 -21 -142 -35 -35 -13 91 -15 97
-37 97 -14 0 -22 -5 -19 -12z"/>
<path d="M1136 2168 c-6 -29 -36 -213 -36 -222 0 -3 9 -6 20 -6 13 0 20 7 20
20 0 15 7 20 24 20 16 0 27 -7 31 -20 3 -11 15 -20 25 -20 16 0 19 5 15 28
-17 94 -35 208 -35 215 0 4 -13 7 -30 7 -23 0 -31 -5 -34 -22z m43 -115 c1
-24 -3 -33 -15 -33 -14 0 -15 7 -10 38 3 20 6 46 7 57 2 31 17 -22 18 -62z"/>
<path d="M1632 2144 c-20 -14 -22 -23 -22 -113 0 -112 10 -134 60 -134 50 0
60 22 60 130 0 80 -3 96 -20 113 -24 24 -48 25 -78 4z m53 -120 c0 -72 -3 -89
-15 -89 -12 0 -16 17 -18 79 -3 87 1 110 21 103 8 -2 12 -30 12 -93z"/>
<path d="M1413 2113 c3 -21 12 -77 19 -125 l12 -88 31 0 31 0 17 108 c21 129
21 142 3 142 -18 0 -23 -13 -31 -96 -7 -70 -24 -122 -25 -77 0 12 -5 56 -11
98 -10 65 -14 75 -31 75 -18 0 -20 -5 -15 -37z"/>
<path d="M893 1433 c-22 -72 -26 -354 -5 -375 9 -9 15 -9 24 0 20 20 43 13 62
-19 14 -24 20 -28 32 -18 11 9 17 5 29 -24 35 -85 2 -104 -48 -28 -31 45 -47
43 -47 -6 0 -33 -11 -28 -40 15 -13 20 -25 39 -27 41 -5 7 -43 -31 -43 -42 0
-5 -10 -30 -22 -54 l-22 -45 24 -19 c14 -10 33 -19 42 -19 9 0 38 -18 63 -40
25 -22 51 -40 57 -40 5 0 27 -13 48 -30 21 -16 44 -30 51 -30 18 0 -38 47 -76
65 -17 7 -48 30 -70 49 -21 20 -46 36 -54 36 -9 0 -27 9 -40 19 -21 16 -22 20
-10 39 16 26 50 28 87 7 42 -24 143 -57 190 -62 83 -10 108 53 50 122 -54 64
-118 122 -157 142 -57 28 -101 73 -100 102 l0 26 16 -24 c24 -34 88 -71 123
-71 22 0 33 -7 44 -28 22 -42 130 -127 221 -173 44 -22 85 -46 90 -53 6 -7 30
-22 55 -34 30 -15 58 -41 85 -79 22 -31 56 -66 75 -78 52 -33 210 -46 210 -17
0 4 -37 8 -82 10 -72 2 -88 6 -122 30 -22 15 -54 50 -73 77 -22 33 -50 58 -81
74 -26 13 -53 30 -61 38 -7 8 -45 30 -85 49 -88 44 -166 102 -203 151 -35 48
-42 53 -74 53 -37 0 -103 53 -124 101 -18 40 -18 43 1 117 10 41 24 77 30 79
5 2 47 -32 91 -74 90 -87 129 -109 253 -146 110 -33 119 -35 282 -52 97 -10
155 -21 201 -39 48 -20 82 -26 138 -26 41 0 79 4 84 9 10 10 53 27 160 63 33
11 107 24 165 28 58 4 112 10 120 12 35 8 23 -44 -50 -208 -10 -23 -22 -57
-25 -76 -6 -32 -4 -35 39 -57 26 -12 52 -21 59 -18 6 2 39 -13 73 -35 64 -40
74 -44 74 -29 0 16 -113 81 -172 98 -50 15 -57 20 -52 38 8 29 49 133 73 185
11 25 21 65 21 89 l0 43 -37 -7 c-21 -4 -83 -11 -138 -15 -78 -5 -123 -15
-205 -44 -58 -21 -109 -42 -115 -47 -15 -15 -147 -11 -178 6 -55 28 -165 55
-228 55 -124 1 -317 46 -414 97 -27 15 -83 60 -124 100 -95 93 -114 95 -138
16z m187 -473 c0 -5 6 -10 14 -10 7 0 16 -10 20 -22 4 -18 8 -20 18 -10 16 16
25 15 32 -4 4 -12 2 -15 -9 -11 -8 4 -17 2 -21 -4 -7 -12 -27 3 -55 43 -11 15
-16 28 -10 28 6 0 11 -4 11 -10z"/>
<path d="M950 1365 c0 -14 5 -25 10 -25 6 0 10 11 10 25 0 14 -4 25 -10 25 -5
0 -10 -11 -10 -25z"/>
<path d="M1138 1215 c-16 -35 13 -67 56 -63 27 3 31 7 34 37 4 38 -9 51 -51
51 -20 0 -31 -7 -39 -25z"/>
<path d="M1570 1013 c-2 -32 -20 -152 -26 -170 -11 -38 14 -27 31 13 17 41 21
164 5 164 -5 0 -10 -3 -10 -7z"/>
<path d="M1628 913 c-3 -55 -11 -100 -21 -120 -11 -20 -13 -34 -7 -38 22 -14
50 77 50 163 0 45 -4 82 -9 82 -5 0 -11 -39 -13 -87z"/>
<path d="M1692 883 c1 -54 -1 -108 -6 -120 -15 -40 10 -25 29 16 13 31 16 53
10 103 -8 77 -14 98 -26 98 -5 0 -8 -42 -7 -97z"/>
<path d="M2585 740 c3 -5 8 -10 11 -10 2 0 4 5 4 10 0 6 -5 10 -11 10 -5 0 -7
-4 -4 -10z"/>
<path d="M2455 719 c-106 -14 -101 -17 28 -18 109 -1 148 8 95 23 -26 7 -29 7
-123 -5z"/>
<path d="M2390 683 c-36 -2 -69 -9 -75 -14 -15 -16 161 -7 177 9 9 9 7 12 -12
10 -14 -1 -54 -3 -90 -5z"/>
<path d="M1848 673 c7 -3 16 -2 19 1 4 3 -2 6 -13 5 -11 0 -14 -3 -6 -6z"/>
<path d="M1925 670 c-22 -5 -61 -9 -87 -9 -27 -1 -48 -5 -48 -9 0 -11 355 -10
366 1 4 4 4 10 1 13 -11 11 -189 14 -232 4z"/>
<path d="M2190 670 c20 -13 77 -13 85 0 4 6 -14 10 -47 10 -38 0 -49 -3 -38
-10z"/>
<path d="M961 366 c-16 -19 -3 -45 25 -52 13 -3 24 -10 24 -15 0 -5 1 -12 3
-16 1 -4 -11 -11 -28 -14 -26 -5 -27 -7 -11 -14 24 -11 50 6 54 34 3 17 -4 25
-27 34 -38 14 -41 37 -5 37 14 0 23 4 19 10 -9 14 -41 12 -54 -4z"/>
<path d="M1144 365 c-3 -8 -3 -19 1 -25 4 -6 -5 -10 -24 -10 -20 0 -31 6 -34
18 -3 9 -4 -10 -4 -43 0 -33 2 -45 4 -27 4 26 9 32 29 32 19 0 24 -5 24 -24 0
-14 5 -28 10 -31 6 -4 10 18 10 59 0 65 -5 81 -16 51z"/>
<path d="M1221 318 c-11 -34 -19 -64 -16 -66 2 -3 7 3 11 12 8 21 50 21 63 -1
9 -15 10 -15 11 -2 0 21 -30 108 -40 114 -4 3 -18 -23 -29 -57z m39 -5 c0 -7
-7 -13 -16 -13 -11 0 -14 5 -10 16 3 9 6 21 6 27 0 16 20 -14 20 -30z"/>
<path d="M1337 372 c-9 -14 -6 -112 4 -118 5 -3 9 6 9 20 0 34 23 34 39 0 14
-32 25 -26 13 7 -6 15 -5 30 2 41 8 13 8 23 0 36 -12 18 -59 29 -67 14z m58
-32 c0 -8 -10 -16 -22 -18 -18 -3 -23 2 -23 18 0 16 5 21 23 18 12 -2 22 -10
22 -18z"/>
<path d="M1460 315 c0 -40 4 -64 10 -60 5 3 7 12 4 19 -10 27 17 27 38 1 28
-36 35 -24 8 13 l-23 30 22 31 c12 17 18 31 12 31 -5 0 -18 -13 -28 -30 -21
-37 -37 -39 -31 -5 3 14 1 28 -3 31 -5 3 -9 -25 -9 -61z"/>
<path d="M1593 315 c0 -38 2 -53 4 -32 2 20 2 52 0 70 -2 17 -4 1 -4 -38z"/>
</g>
</svg>
